<?xml version="1.0" standalone="no"?>
<!DOCTYPE svg PUBLIC "-//W3C//DTD SVG 1.1//EN" "http://www.w3.org/Graphics/SVG/1.1/DTD/svg11.dtd" >
<svg>
<metadata>
Created by FontForge 20110222 at Mon Mar 10 12:37:49 2014
 By Orthosie Webhosting
(c) copyright by Fontbit 2000
</metadata>
<defs>
<font id="Tipograf2Regular" horiz-adv-x="1024" >
  <font-face 
    font-family="Tipograf2Regular"
    font-weight="4"
    font-stretch="normal"
    units-per-em="2048"
    panose-1="0 0 0 0 0 0 0 0 0 0"
    ascent="1505"
    descent="-543"
    x-height="916"
    cap-height="1380"
    bbox="-156 -510 2067 1520"
    underline-thickness="150"
    underline-position="-142"
    unicode-range="U+0020-2421"
  />
<missing-glyph 
d="M128 0v1505h768v-1505h-768zM256 128h512v1249h-512v-1249z" />
    <glyph glyph-name=".notdef" 
d="M128 0v1505h768v-1505h-768zM256 128h512v1249h-512v-1249z" />
    <glyph glyph-name=".null" horiz-adv-x="0" 
 />
    <glyph glyph-name="nonmarkingreturn" horiz-adv-x="453" 
 />
    <glyph glyph-name="space" unicode=" " horiz-adv-x="453" 
 />
    <glyph glyph-name="exclam" unicode="!" horiz-adv-x="601" 
d="M407 1057q0 -14 -1 -29l-72 -729h-91l-66 729q-1 14 -1 28q0 69 31.5 111.5t81.5 42.5q52 0 85 -41t33 -112zM372 -2h-185v184h185v-184z" />
    <glyph glyph-name="quotedbl" unicode="&#x22;" horiz-adv-x="548" 
d="M507 1042q-22 -69 -91 -168t-125 -137q-35 35 -46 72q115 168 131 366q89 -49 131 -133zM283 1042q-22 -70 -90 -167q-70 -100 -126 -138q-35 35 -47 72q116 168 132 366q89 -49 131 -133z" />
    <glyph glyph-name="numbersign" unicode="#" horiz-adv-x="836" 
d="M795 844l-27 -113h-125l-47 -254h147l-28 -112h-142l-34 -185q-45 -4 -58 -4q-3 0 -65 4l35 185h-156l-37 -185q-44 -4 -58 -4q-2 0 -65 4l39 185h-133l22 112h130l49 254h-152l25 113h149l37 184q62 8 63 8q8 0 60 -8l-37 -184h158l35 184q62 8 61 8q7 0 59 -8l-34 -184
h129zM518 731h-153l-50 -254h156z" />
    <glyph glyph-name="dollar" unicode="$" horiz-adv-x="787" 
d="M705 258q0 -132 -83 -201q-75 -62 -202 -62v-118h-72v122q-125 8 -242 127q9 20 72 104q81 -100 170 -120v384q-266 106 -266 284q0 113 76 183t190 70v116h72v-118q124 -17 229 -126q-7 -17 -72 -104q-76 105 -157 118v-344q285 -109 285 -315zM348 610v307
q-33 1 -62 -35q-34 -43 -34 -114q0 -119 96 -158zM524 258q0 147 -104 203v-351q38 2 68 38q36 42 36 110z" />
    <glyph glyph-name="percent" unicode="%" horiz-adv-x="1143" 
d="M1071 278q0 -125 -49 -205q-59 -95 -175 -95t-175 96q-49 79 -49 204q0 127 48 206q58 95 176 95q224 0 224 -301zM926 1028l-549 -1028h-155l549 1028h155zM521 750q0 -125 -50 -204q-58 -96 -175 -96q-116 0 -175 96q-49 79 -49 204q0 127 48 206q59 95 176 95
q225 0 225 -301zM911 278q0 97 -18 161t-46 64q-64 0 -64 -225q0 -92 18.5 -158t45.5 -66q64 0 64 224zM360 750q0 225 -64 225q-29 0 -47.5 -64.5t-18.5 -160.5q0 -95 19 -159.5t47 -64.5q64 0 64 224z" />
    <glyph glyph-name="ampersand" unicode="&#x26;" horiz-adv-x="1235" 
d="M1133 354q0 -354 -337 -354h-272q-101 0 -111 106l-43 492h181l40 -504h182q80 0 126 53q51 59 51 166v570h183v-529zM840 283h-183v315q0 188 -153 188h-221v-786h-181v770q0 111 132 111h293q313 0 313 -303v-295z" />
    <glyph glyph-name="quotesingle" unicode="'" horiz-adv-x="303" 
d="M262 1042q-23 -73 -80 -166q-64 -104 -115 -139q-35 35 -47 72q93 134 111 366q89 -49 131 -133z" />
    <glyph glyph-name="parenleft" unicode="(" horiz-adv-x="484" 
d="M443 -137h-155q-100 114 -162 317q-54 179 -54 332q0 151 54 332q62 203 160 319h155q-81 -130 -131 -340q-41 -177 -41 -309q0 -390 174 -651z" />
    <glyph glyph-name="parenright" unicode=")" horiz-adv-x="484" 
d="M412 514q0 -156 -52 -333q-59 -204 -160 -318h-159q179 268 179 651q0 129 -44 309q-52 209 -133 340h157q98 -116 159 -318q53 -179 53 -331z" />
    <glyph glyph-name="asterisk" unicode="*" horiz-adv-x="666" 
d="M605 841q-26 -61 -57 -112l-174 136l17 -227q-46 -2 -79 -2q-23 0 -44 1l35 230l-186 -139q-24 34 -54 114l213 84l-215 93q26 60 58 112l183 -132l-34 231q63 5 105 5q14 0 25 -1l-26 -235l177 133q10 -16 55 -114l-205 -92z" />
    <glyph glyph-name="plus" unicode="+" horiz-adv-x="588" 
d="M518 453h-170v-201h-108v201h-172l-2 110h174v205h108v-205h170v-110z" />
    <glyph glyph-name="comma" unicode="," horiz-adv-x="264" 
d="M203 66q-52 -164 -163 -261q-28 28 -40 68q68 116 90 326q64 -34 113 -133z" />
    <glyph glyph-name="hyphen" unicode="-" horiz-adv-x="588" 
d="M520 453h-452v110h452v-110z" />
    <glyph glyph-name="period" unicode="." horiz-adv-x="254" 
d="M193 0h-152v164h152v-164z" />
    <glyph glyph-name="slash" unicode="/" horiz-adv-x="659" 
d="M628 1028l-442 -1028h-155l437 1028h160z" />
    <glyph glyph-name="zero" unicode="0" horiz-adv-x="819" 
d="M735 512q0 -539 -325 -539q-326 0 -326 541q0 235 52 357q76 182 274 182q201 0 276 -181q49 -119 49 -360zM524 514q0 330 -65 413q-20 25 -49 25q-30 0 -50 -25q-65 -83 -65 -415q0 -334 67 -415q19 -23 48 -23q25 0 43 18q71 72 71 422z" />
    <glyph glyph-name="one" unicode="1" horiz-adv-x="819" 
d="M610 0h-198v834q-124 -222 -287 -269q-12 59 -12 70q0 7 8 63q191 85 307 330h182v-1028z" />
    <glyph glyph-name="two" unicode="2" horiz-adv-x="819" 
d="M725 727q0 -255 -217 -484q-81 -84 -176 -141h375q4 -24 4 -54q0 -28 -4 -48h-547q-55 0 -59 48q-4 46 44 75q68 41 129 102q105 105 172 243q70 142 70 261q0 82 -45 145q-51 70 -129 70q-100 0 -180 -96q-13 11 -35 33q-26 29 -35 57q123 117 299 117
q153 0 243.5 -87.5t90.5 -240.5z" />
    <glyph glyph-name="three" unicode="3" horiz-adv-x="819" 
d="M733 270q0 -136 -99 -219q-93 -78 -233 -78q-184 0 -319 115q7 27 68 90q26 -38 81 -67t101 -29q83 0 143 53t60 135q0 88 -69 147q-65 56 -155 56h-78q-8 25 -8 52q0 25 8 53h78q87 0 150 46q69 50 69 134q0 82 -55.5 133t-138.5 51q-108 0 -186 -98q-58 47 -68 90
q64 63 146 93q76 28 173 28q143 0 233 -67q99 -75 99 -212q0 -102 -77 -175q-73 -69 -177 -81q103 -11 176 -78q78 -71 78 -172z" />
    <glyph glyph-name="four" unicode="4" horiz-adv-x="819" 
d="M756 218q0 -14 -4 -50h-68v-168h-190v168h-365q-46 0 -68 20q-18 18 -18 48q0 35 27 65q82 92 188 345q97 235 125 382h162q39 0 39 -21q0 -7 -2 -22q-23 -136 -125 -352q-126 -266 -224 -363h261v265q81 87 190 94v-359h68q4 -38 4 -52z" />
    <glyph glyph-name="five" unicode="5" horiz-adv-x="819" 
d="M735 338q0 -160 -97 -262.5t-255 -102.5q-192 0 -301 117q13 43 70 88q68 -102 174 -102q99 0 154 84q48 72 48 178q0 100 -50 167q-56 75 -152 75q-84 0 -156 -68q-12 -11 -28 -11q-30 0 -30 28q0 3 1 6l65 458q5 35 39 35h434q8 -31 8 -51q0 -10 -8 -51h-289l-35 -263
q36 13 95 13q149 0 233 -96q80 -91 80 -242z" />
    <glyph glyph-name="six" unicode="6" horiz-adv-x="819" 
d="M735 342q0 -165 -78 -262q-85 -105 -245 -105q-159 0 -246 108q-82 100 -82 263v250q0 200 77 317q90 138 275 138q163 0 252 -117q-7 -21 -21 -41q-4 -6 -49 -37q-23 33 -71 59q-51 27 -94 27q-166 0 -166 -264q0 -18 2 -53q52 53 145 53q148 0 227 -95q74 -89 74 -241z
M541 324q0 89 -26 157q-35 97 -109 97q-99 0 -126 -164q-8 -45 -8 -90q0 -88 26 -161q36 -102 108 -102q75 0 111 111q24 72 24 152z" />
    <glyph glyph-name="seven" unicode="7" horiz-adv-x="819" 
d="M754 965q0 -29 -23 -56q-129 -152 -214 -431q-79 -259 -79 -478h-166q-28 0 -35.5 7t-7.5 36q0 249 140 557q116 256 202 332h-499q-6 51 -6 53q0 -8 6 43h618q47 0 60 -39q4 -13 4 -24z" />
    <glyph glyph-name="eight" unicode="8" horiz-adv-x="819" 
d="M737 272q0 -148 -88.5 -231.5t-236.5 -83.5q-150 0 -240 83.5t-90 231.5q0 91 52 162t138 94q-82 26 -130 95.5t-48 156.5q0 289 318 289q313 0 313 -289q0 -194 -174 -252q186 -48 186 -256zM524 782q0 68 -24 124q-32 73 -90 73q-34 0 -59 -25q-56 -56 -56 -172
q0 -68 24 -127q32 -77 91 -77q31 0 56 24q58 57 58 180zM530 258q0 79 -23 138q-32 83 -97 83q-77 0 -107 -112q-14 -52 -14 -109q0 -73 25 -133q33 -80 96 -80q58 0 91 67q29 62 29 146z" />
    <glyph glyph-name="nine" unicode="9" horiz-adv-x="819" 
d="M735 431q0 -200 -77 -317q-90 -138 -275 -138q-163 0 -252 117q7 21 21 40q4 6 49 38q23 -34 72.5 -60t93.5 -26q165 0 165 264q0 17 -2 53q-52 -53 -145 -53q-147 0 -227 95q-74 89 -74 241q0 165 79 261q85 105 245 105q158 0 246 -107q81 -100 81 -263v-250zM547 703
q0 88 -26 161q-36 101 -107 101q-76 0 -112 -110q-24 -72 -24 -152q0 -89 26 -158q36 -96 110 -96q98 0 125 163q8 45 8 91z" />
    <glyph glyph-name="colon" unicode=":" horiz-adv-x="305" 
d="M193 629h-152v164h152v-164zM193 0h-152v164h152v-164z" />
    <glyph glyph-name="semicolon" unicode=";" horiz-adv-x="305" 
d="M193 629h-152v164h152v-164zM188 66q-52 -164 -162 -261q-28 28 -40 68q68 116 90 326q63 -34 112 -133z" />
    <glyph glyph-name="less" unicode="&#x3c;" horiz-adv-x="588" 
d="M532 299l-53 -111l-344 220q-78 49 -78 111t78 114l344 227l53 -108l-346 -228z" />
    <glyph glyph-name="equal" unicode="=" horiz-adv-x="588" 
d="M520 631h-452v110h452v-110zM520 287h-452v110h452v-110z" />
    <glyph glyph-name="greater" unicode="&#x3e;" horiz-adv-x="588" 
d="M537 519q0 -62 -78 -111l-344 -220l-54 111l347 225l-347 228l54 108l344 -227q78 -52 78 -114z" />
    <glyph glyph-name="question" unicode="?" horiz-adv-x="981" 
d="M790 901q0 -173 -164 -322q-117 -105 -117 -237v-41h-185v29q0 181 145 300q53 43 86 121q32 74 32 146q0 71 -26 133q-33 82 -94 82q-102 0 -131 -176q-4 -22 -6 -44q-3 -44 -3 -108h-188q-2 28 -2 54q0 372 339 372q145 0 229.5 -82t84.5 -227zM509 -2h-185v184h185
v-184z" />
    <glyph glyph-name="at" unicode="@" horiz-adv-x="1886" 
d="M1844 156q-93 -285 -331 -451q-234 -163 -536 -163q-241 0 -440 111q-205 114 -318.5 320.5t-113.5 454.5q0 264 122 489q125 232 349 360.5t475 128.5q202 0 362 -79q176 -87 264 -254t88 -352q0 -169 -66 -330q-70 -173 -193 -272q-129 -104 -293 -104q-153 0 -181 121
q16 64 56 104q-246 -226 -404 -226q-85 0 -136 77q-45 67 -45 156q0 156 104 345q86 156 217 296q107 73 177 73q30 0 53 -13q140 0 202 -84l8 96l136 -24l-101 -393q-72 -280 -72 -338q0 -19 5 -29q-6 -20 -6 -33q0 -28 25 -28q17 0 45 13q20 -9 40 -9q74 0 152 121
q92 40 144 157q73 164 73 342q-33 141 -105 309q-91 134 -245 212q-150 76 -315 76q-232 -64 -392 -160q-223 -76 -264 -272q-157 -216 -157 -411q0 -35 5 -69q-8 -240 104 -408q61 -217 272 -256q140 -84 360 -112q55 -7 101 -7q231 0 395 151q211 105 256 400zM1182 773
q0 60 -32 100q-17 22 -44 22q-28 0 -66 -23q-80 8 -136 -136q-111 -13 -192 -211q-59 -145 -59 -232q19 -29 30 -95q29 24 49 24q23 0 36 -30q112 56 248 192q40 88 120 144q46 146 46 245z" />
    <glyph glyph-name="A" unicode="A" horiz-adv-x="1479" 
d="M1456 0h-535l39 32q72 32 99 88q0 44 -40 139l-82 195h-525l-92 -214q-34 -79 -34 -118q0 -74 114 -82l43 -40h-427v37q85 15 96 67q64 19 127 167l477 1116l44 -27l463 -1101q48 -114 105 -139q31 -77 128 -83v-37zM872 544l-176 528l-253 -544z" />
    <glyph glyph-name="B" unicode="B" horiz-adv-x="1366" 
d="M1254 371q0 -112 -66 -200t-173 -128q-123 -46 -341 -43l-578 8l-16 56l5 -27q86 0 122 54q9 53 23 149v876q0 126 -29 159q-39 44 -116 44l43 -7l-48 40l540 4q338 3 480 -139q91 -91 91 -223q0 -223 -245 -302q141 -30 211 -96q97 -92 97 -225zM982 1002
q0 145 -123 222q-104 65 -257 65q-100 0 -180 -22v-521q66 -2 178 30q68 -11 124 -11q162 0 219 95q39 65 39 142zM1022 354q0 188 -183 267q-97 42 -240 42q-128 0 -177 -9l-22 -494q138 -89 251 -89q151 0 252 64q119 76 119 219z" />
    <glyph glyph-name="C" unicode="C" horiz-adv-x="1366" 
d="M1336 320q-238 -351 -602 -351q-337 0 -522 250q-138 186 -138 438q0 199 86 365q90 175 256 272q159 93 348 93q148 0 290 -72q43 -22 60 -22q23 5 23 31q0 27 -25 76l121 -13l31 -461l-64 2q-84 387 -420 387q-295 0 -415 -287q-63 -151 -63 -373q0 -382 237 -526
q88 -27 214 -27q30 0 63 2q55 -18 106 -18q82 0 151 48q79 114 191 204z" />
    <glyph glyph-name="D" unicode="D" horiz-adv-x="1479" 
d="M1401 685q0 -284 -172 -473q-198 -218 -588 -212l-537 8l-16 -8l-2 37q86 0 122 55q22 33 22 148v876q0 127 -102 140q11 20 11 31q0 15 -19 15q-12 0 -32 -6v0l-24 80l523 -20q296 -11 407 -49q198 -67 306 -242q101 -163 101 -380zM1173 675q0 267 -149 413
q-164 160 -392 160q-29 3 -63 3q-68 0 -153 -11l6 -1142q40 2 218 -2q260 -6 401 160q132 154 132 419z" />
    <glyph glyph-name="E" unicode="E" horiz-adv-x="1251" 
d="M1192 304l-96 -320h-1000l-16 80l2 -43q47 0 86 83q18 -16 31 -16q34 0 33 176l-4 840q-28 119 -28 149q0 8 2 10q-35 40 -120 40l-10 9v40l1007 -12l15 -297l-70 5q-16 88 -32 128q-29 36 -96 56q-47 14 -112 32h-376l24 -488l286 -46q192 0 192 104q0 15 -6 30l72 32
l32 -360l-88 -32q-3 51 -17 78q-39 76 -156 76q-17 0 -29 -1l-294 -25l-4 -422q-1 -71 1 -77q37 -25 59 -37q11 -6 26 -6q24 0 62 14h184q56 8 94 8t58 -8q72 24 125 33q43 63 67 183z" />
    <glyph glyph-name="F" unicode="F" horiz-adv-x="1139" 
d="M1055 1058l-79 -2q-24 144 -120 192q-32 -16 -152 -16h-288l16 -416l234 -67q70 35 133 47q32 39 44 139h37v-459h-37q-2 133 -74 172q-33 18 -103 18l-226 -42l-21 -384q19 -52 19 -93q0 -23 -6 -43q4 -11 18 -11q19 0 54 19q64 -40 62 -75h49v-37l-583 8l40 56l9 -27
q55 51 103 51q0 64 43 152v876q0 103 -13 136q-27 67 -133 67l-9 -23l-8 64l960 -8z" />
    <glyph glyph-name="G" unicode="G" horiz-adv-x="1479" 
d="M1392 680l25 14q-52 -66 -77 -66q-14 0 -20 20q-17 -24 -17 -74q0 -36 9 -86l-104 -384q-112 -192 -416 -216q-436 32 -608 312q-110 179 -120 449q-8 211 86 343q164 400 504 400q61 0 128 -13q131 0 306 -65q57 -21 75 -21q29 0 29 25q0 14 -8 34l80 8l20 -409l-84 9
q-4 151 -88 232q-96 68 -220 68q-52 0 -108 -12q-68 26 -127 26q-161 0 -249 -194q-114 -148 -114 -388q0 -176 64 -330q114 -122 210 -186l224 -56q144 -8 224 64l79 312q0 76 -6 103q-41 17 -97 41q1 8 1 15q0 41 -33 49l32 80l448 -8z" />
    <glyph glyph-name="H" unicode="H" horiz-adv-x="1479" 
d="M1429 0h-557l-23 37l47 3q84 -3 122 46q25 32 25 154v413h-630v-413q0 -103 35 -136q6 -36 61 -36q19 0 43 4l56 -35v-45l-581 8v37l21 43q27 -8 46 -8q39 0 50 32q56 48 72 160l5 851q1 105 -13 137q-48 4 -48 20q-80 0 -85 47l-43 -55v104l576 -12v-37h-49
q-53 0 -86 -28q-22 -19 -56 -75q-4 -23 -4 -101l43 -339h576l11 339q3 96 -13 137q-62 12 -133 67h-48v37h580v-37h-48q-82 0 -141 -119q-5 -5 24 -96l-29 -864q-3 -99 13 -120q50 -28 50 -46q0 -7 -9 -13q43 -24 92 -24h48v-37z" />
    <glyph glyph-name="I" unicode="I" horiz-adv-x="682" 
d="M624 0l-584 4l3 33h48q84 0 93 67q40 44 53 136v876q0 103 -13 136q-10 26 -68 28q-27 21 -68 32l-44 12v48l584 8l-4 -61h-49q-59 -35 -87 -87q-48 -24 -59 -116l19 -868q23 -58 23 -104q0 -17 -3 -32q24 -48 107 -75l41 43z" />
    <glyph glyph-name="J" unicode="J" horiz-adv-x="797" 
d="M785 1319h-49q-80 -15 -121 -49q-24 -31 -24 -154v-663q0 -285 -143 -425q-88 -59 -204 -59q-77 0 -135 37q-49 54 -49 122q-3 19 -3 33q0 50 40 50q10 0 23 -3q70 19 103 -27q15 -21 45 -69q15 -17 24 -17q8 0 12 13q52 0 56 88l39 920q4 93 -13 136q-50 36 -134 44
l-48 23l-12 77h600z" />
    <glyph glyph-name="K" unicode="K" horiz-adv-x="1479" 
d="M1508 -8h-645v37q109 0 109 63q0 43 -72 114l-468 463v-437q0 -103 13 -136q25 -42 83 -42q13 0 28 2l56 -8l4 -56h-568l8 36l24 24q92 8 136 26q24 31 24 154v876q-12 100 -13 137q-25 10 -67 39q-23 16 -66 27h-48l2 53l572 -4l-4 -56l-44 -20q-9 2 -18 2
q-41 0 -106 -90q-16 -10 -16 -88v-415q39 37 124 155q312 246 360 336q8 44 16 72q-23 12 -64 48l-32 28l4 48l488 4l2 -73q-74 -11 -174 -59q-40 -40 -116 -124q-95 -78 -172 -168l-184 -216l440 -497q181 -204 384 -218v-37z" />
    <glyph glyph-name="L" unicode="L" horiz-adv-x="1251" 
d="M1232 280l-145 -288h-1050v37h51q86 0 123 56q21 32 21 148v875q0 127 -32 176q-51 2 -100 8l-68 8l-4 60h628l-8 -96q-68 19 -114 19q-72 0 -94 -45q-9 -18 -16 -153l-44 -853q16 -68 60 -113q28 -23 84 -31l192 16q132 -4 198 -13q181 43 222 233zM1164 132zM1144 56z
" />
    <glyph glyph-name="M" unicode="M" horiz-adv-x="1821" 
d="M1760 -12l-548 12v44l48 16q26 -9 48 -9q59 0 77 66q9 33 9 114v906l-502 -1105l-56 -16l-472 1052l-50 -837q18 -115 27 -156q37 -42 117 -42h48v-37h-454l8 52l52 -4q9 -2 18 -2q41 0 58 46q20 28 38 143l-26 885q8 96 6 131q-38 53 -166 57l-4 60l388 8l440 -1052
l532 1060l368 -20l-8 -44l-25 -1q-87 -23 -123 -52q-22 -32 -22 -146v-886q0 -125 28 -156q38 -43 98 -43h56z" />
    <glyph glyph-name="N" unicode="N" horiz-adv-x="1479" 
d="M1440 1292h-44q-78 0 -128 -29q-22 -32 -22 -146v-1143h-36l-894 1092v-835q0 -126 27 -156q37 -42 93 -39l20 4l-12 -32l-408 -12l40 48l7 -11q87 0 123 52q22 32 22 146v943q-51 60 -79 82q-38 30 -100 50q-28 9 -45 18l8 36l320 12l826 -1037v782q-18 111 -28 156
q-42 -1 -114 23h-56l6 56h472z" />
    <glyph glyph-name="O" unicode="O" horiz-adv-x="1479" 
d="M1400 686q0 -303 -180 -506q-188 -211 -487 -211q-304 0 -487 208q-174 198 -174 506q0 323 220 527q191 177 457 177q289 0 474 -208q177 -200 177 -493zM1171 650q0 177 -18 264q-12 57 -55 151q-100 218 -325 218q-26 0 -53 -3q-28 4 -54 4q-136 0 -228 -113
q-137 -168 -137 -492q0 -231 11 -232q5 0 12 45q207 -420 353 -420q14 0 27 4q22 -4 44 -4q237 0 424 440q-1 -118 -1 138z" />
    <glyph glyph-name="P" unicode="P" horiz-adv-x="1139" 
d="M1067 981q0 -183 -121 -282q-111 -92 -298 -92q-98 0 -228 28v-395q0 -127 28 -159q39 -44 115 -44h52v-37h-581v37h51q86 0 123 56q20 31 20 147v876q0 128 -27 159q-39 44 -116 44h-51v37h497q160 0 254 -27q126 -36 202 -126q80 -94 80 -222zM839 961q0 199 -138 277
q-65 37 -150 37q-51 0 -131 -19v-564q106 -20 164 -20q115 0 187 89q68 83 68 200z" />
    <glyph glyph-name="Q" unicode="Q" horiz-adv-x="1479" 
d="M1401 677q0 -244 -133 -431q-135 -192 -366 -261q191 -330 490 -354v-32q-303 11 -592 195q-141 90 -243 191q-147 59 -228 123q-257 202 -257 573q0 303 184 502q189 204 490 204q293 0 478 -211q177 -202 177 -499zM1172 652q0 454 -225 598q-94 60 -213 60
q-235 0 -346 -208q-87 -163 -87 -421q0 -329 142 -507q125 -50 291 -137q233 0 347 201q91 160 91 414z" />
    <glyph glyph-name="R" unicode="R" horiz-adv-x="1366" 
d="M1384 0h-362l-459 634q-51 -2 -83 -2q-27 0 -59 2v-394q0 -127 28 -159q39 -44 114 -44h53v-37l-556 -4l32 40l-6 1q86 0 123 56q21 32 21 147v876q0 129 -28 159q-19 21 -38 33l4 -4l-32 60l393 -8q200 -4 266 -18q133 -28 212 -111q86 -89 86 -220q0 -273 -334 -347
l280 -389q85 -118 144 -162q79 -59 201 -72v-37zM852 982q0 131 -79 208.5t-211 77.5q-58 0 -157 -19l39 -529l-11 -35q19 -1 28 -1q163 0 267 66q124 78 124 232z" />
    <glyph glyph-name="S" unicode="S" horiz-adv-x="1139" 
d="M1025 354q0 -172 -130 -278q-121 -99 -297 -99q-74 0 -111 9q-23 5 -139 34q-50 12 -113 34q-50 0 -55 -50l-44 8l4 396l28 12q29 -109 65 -176q48 -90 146 -141q91 -48 198 -48q110 0 185 55q85 61 85 167q0 110 -113 196q-70 53 -231 141q-156 85 -229 142
q-150 118 -150 282q0 162 120 262q112 95 277 95q109 0 229 -53q57 -25 78 -6q15 -5 27 -5q28 0 33 33l60 -4l-4 -400l-52 32q-28 187 -204 244q-44 48 -98 48q-35 0 -74 -20q-35 21 -67 21q-47 0 -89 -45q-77 -42 -77 -133q0 -61 43 -113q62 -74 295 -200q165 -89 206 -117
q198 -135 198 -323z" />
    <glyph glyph-name="T" unicode="T" horiz-adv-x="1251" 
d="M1200 1144h-68q4 -5 5 -6l1 1q-1 6 -6 19q-72 66 -218 113l-190 -27l-1 -1009q-11 -43 -11 -75q0 -59 38 -81q38 -27 117 -42l13 -1l8 -32l-532 -8l4 44l27 -3q86 0 122 52q31 18 31 74q0 31 -9 72l-15 1013l-144 4h-144q-102 -34 -102 -80q0 -6 2 -12l-68 8l18 188h1107
z" />
    <glyph glyph-name="U" unicode="U" horiz-adv-x="1479" 
d="M1457 1319h-51q-79 0 -110 -59q-12 -30 -12 -144v-560q-22 -188 -52 -284q-95 -304 -492 -304q-396 0 -500 284q-32 245 -32 334v530q0 105 -22 145q-32 58 -124 58l-50 9l16 80h576l-7 -89h-52q-85 -11 -120 -53q-61 -26 -73 -138l-4 -600q24 -240 119 -343
q73 -106 235 -106q17 0 34 1q132 -8 228 52q116 44 144 156q40 72 64 288v540q0 127 -52 156q-12 27 -62 27q-17 0 -38 -3h-48l16 100l468 -16z" />
    <glyph glyph-name="V" unicode="V" horiz-adv-x="1479" 
d="M1454 1319q-73 -13 -109 -46q-52 -47 -94 -150l-473 -1154h-37l-508 1169q-39 91 -55 110q-50 62 -160 71v37h554v-37q-150 -14 -150 -91q0 -50 46 -156l345 -795l320 785q47 115 47 161q0 71 -127 93l-17 3v37h418v-37z" />
    <glyph glyph-name="W" unicode="W" horiz-adv-x="1933" 
d="M1888 1312q-60 -32 -84 -92q-19 -20 -64 -160l-356 -1096l-85 1l-267 871l-349 -871h-36l-403 1126q-42 118 -57 149q-32 68 -75 68l8 52l388 -8l33 -37l-37 -27q-28 7 -43 7q-53 -1 -53 -62q0 -22 44 -161l236 -748l184 636v203q-41 118 -129 146q-3 3 13 19l4 48h400
v-56l-4 -44q-28 8 -51 8q-59 0 -85 -52q4 -52 92 -184l224 -748l260 768q19 57 44 160q0 49 -20 56q-35 12 -56 4l-8 80h344z" />
    <glyph glyph-name="X" unicode="X" horiz-adv-x="1479" 
d="M1455 0h-582v37q45 1 66 6q68 16 68 71q0 23 -9 46q-5 12 -55 88l-230 348l-284 -364q-63 -81 -63 -118q0 -72 130 -77v-37h-481v37q50 5 88 21q126 53 246 205l320 404l-267 391q-89 130 -148 180q-91 77 -212 81v37h627v-37q-139 -5 -139 -77q0 -36 48 -108l208 -311
l241 305q61 77 61 115q0 49 -50 67q-22 8 -95 9v37h481v-37q-58 -3 -93 -18q-97 -41 -226 -206l-269 -344l291 -434q98 -147 133 -183q87 -91 195 -97v-37z" />
    <glyph glyph-name="Y" unicode="Y" horiz-adv-x="1479" 
d="M1372 1320q-47 -1 -132 -90q-48 -50 -101 -140l-303 -514l-24 -341q24 -119 28 -156q38 -42 120 -42h44v-37h-576v37h48q86 0 122 52q-10 27 -26 139l32 316l-356 580q-50 81 -77 111q-35 38 -110 74q-10 5 -13 7v40h424l8 -24l4 -4q21 -9 -14 -29q-43 -24 -43 -68
q0 -20 61 -130l224 -405l256 392q100 92 104 128q-4 56 -44 76q-14 27 -20 28l-4 36h360zM1348 1320z" />
    <glyph glyph-name="Z" unicode="Z" horiz-adv-x="1251" 
d="M1180 324v-320l-1170 -12v37l850 1227h-412q-184 0 -208 -72q-4 -68 -28 -104l-68 8v280h956l-832 -1236h572q45 -11 78 -11q64 0 90 39q60 44 76 164h96z" />
    <glyph glyph-name="bracketleft" unicode="[" horiz-adv-x="643" 
d="M602 -412h-159q-199 0 -270 85q-60 71 -60 237v1290q0 165 65 237q75 83 265 83h159v-90h-153q-67 0 -103 -39q-43 -48 -43 -166v-1366q0 -181 146 -181h153v-90z" />
    <glyph glyph-name="backslash" unicode="\" horiz-adv-x="565" 
d="M556 -4h-176l-380 1198l184 2z" />
    <glyph glyph-name="bracketright" unicode="]" horiz-adv-x="643" 
d="M530 -90q0 -178 -70 -249q-74 -73 -260 -73h-159v90h153q146 0 146 181v1366q0 205 -146 205h-153v90h159q183 0 259 -77q71 -72 71 -243v-1290z" />
    <glyph glyph-name="asciicircum" unicode="^" horiz-adv-x="788" 
d="M768 436h-160l-208 508l-232 -508h-141l317 701h107z" />
    <glyph glyph-name="underscore" unicode="_" horiz-adv-x="1032" 
d="M1042 -258h-1042l-8 130h1044z" />
    <glyph glyph-name="grave" unicode="`" horiz-adv-x="682" 
d="M447 1045l-55 -9l-274 354h223z" />
    <glyph glyph-name="a" unicode="a" horiz-adv-x="909" 
d="M905 132q-112 -150 -214 -150q-106 0 -108 150q-142 -110 -177 -126q-54 -25 -115 -25q-100 0 -160 69q-58 66 -58 167q0 142 173 244q102 60 337 146v36q0 239 -170 239q-53 0 -94 -29q-46 -32 -44 -83l2 -58q3 -96 -85 -96q-84 0 -84 97q0 113 117 177q96 53 218 53
q229 0 287 -138q18 -43 18 -176v-311q0 -181 22 -200q11 -10 26 -10q16 0 28 7q20 12 81 73v-56zM583 197v349q-149 -59 -195 -85q-147 -82 -147 -197q0 -65 38 -114q41 -53 104 -53q76 0 200 100z" />
    <glyph glyph-name="b" unicode="b" 
d="M954 493q0 -244 -162 -393q-139 -128 -310 -128q-159 0 -331 116v949q0 216 -31 241q-16 13 -40 13q-28 0 -70 -16l-14 35l275 112h45v-664q133 185 287 185q168 0 266 -147q85 -127 85 -303zM781 436q0 137 -58 240q-71 125 -199 125q-53 0 -106 -27q-40 -20 -102 -80
v-548q103 -101 217 -101q125 0 194 141q54 111 54 250z" />
    <glyph glyph-name="c" unicode="c" horiz-adv-x="909" 
d="M842 348q-32 -158 -126 -260q-106 -116 -258 -116q-183 0 -292 156q-96 138 -96 329q0 204 115 341q122 145 322 145q106 0 200 -56q109 -65 109 -164q0 -85 -93 -85q-58 0 -89 38q-9 12 -23 81q-13 66 -43.5 92.5t-93.5 26.5q-100 0 -161 -74q-81 -98 -81 -259
q0 -155 70 -274q83 -141 228 -141q97 0 176 67q55 47 107 167z" />
    <glyph glyph-name="d" unicode="d" 
d="M1029 85l-272 -113h-46v131q-125 -131 -269 -131q-170 0 -277 143q-97 130 -97 305q0 201 119 356q129 168 324 168q121 0 200 -77v169q0 217 -31 242q-16 13 -40 13q-26 0 -69 -16l-13 35l273 112h45v-1059q0 -219 32 -246q16 -14 38 -14q27 0 72 17zM711 173v472
q0 143 -115 209q-49 28 -97 28q-88 0 -157 -79q-91 -104 -91 -304q0 -153 64 -272q78 -145 220 -145q91 0 176 91z" />
    <glyph glyph-name="e" unicode="e" horiz-adv-x="909" 
d="M851 334q-23 -151 -122 -252q-106 -110 -253 -110q-189 0 -300 147q-100 133 -100 327q0 214 102 349q113 149 321 149q162 0 258 -107q94 -103 94 -266h-633q-1 -170 79 -293q93 -143 255 -143q186 0 268 219zM642 629q-5 88 -21 124q-53 120 -178 120q-97 0 -159 -76
q-56 -67 -66 -168h424z" />
    <glyph glyph-name="f" unicode="f" horiz-adv-x="682" 
d="M890 1251q0 -30 -26 -56.5t-56 -26.5q-31 0 -111.5 90t-136.5 90q-97 0 -124 -100q-14 -52 -14 -266v-66h236v-72h-236v-602q0 -128 28 -162q37 -44 99 -44h83v-36h-547v36h41q92 0 119 74q12 33 12 132v602h-178v72h178v60q0 270 179 386q90 58 203 58q105 0 193 -68
q58 -45 58 -101z" />
    <glyph glyph-name="g" unicode="g" 
d="M987 836q0 -38 -15 -44q-8 -3 -51 -3h-119q56 -72 56 -184q0 -145 -111 -231q-101 -79 -250 -79q-68 0 -139 20q-75 -65 -75 -115q0 -44 81 -56q29 -4 140 -7q207 -5 267 -14q90 -13 144 -64q60 -56 60 -143q0 -113 -106 -212q-156 -146 -407 -146q-194 0 -326 87
q-75 49 -75 104q0 50 81 151q8 10 102 108q-95 57 -95 111q0 81 160 215q-174 85 -174 277q0 150 109 244q103 88 256 88q131 0 227 -64h194q43 0 50 -3q16 -7 16 -40zM683 580q0 159 -69 249q-51 66 -131 66q-92 0 -137 -78q-37 -63 -37 -162q0 -158 68 -245
q52 -66 132 -66q174 0 174 236zM902 -123q0 69 -103 90q-33 7 -154 10q-218 6 -346 23q-95 -103 -95 -176q0 -48 58 -84q100 -62 289 -62q123 0 219 39q132 54 132 160z" />
    <glyph glyph-name="h" unicode="h" 
d="M1011 0h-450v36h21q105 0 124 77q3 12 3 94v324q0 113 -4 143q-20 148 -143 148q-106 0 -229 -131v-484q0 -70 3 -88q14 -83 145 -83v-36h-454v36q60 0 96 19q44 23 44 152v829q0 217 -30 242q-15 13 -42 13q-21 0 -68 -16l-14 35l274 112h46v-670q83 91 135 129
q85 62 171 62q165 0 217 -178q19 -65 19 -234v-324q0 -86 14 -119q22 -52 122 -52v-36z" />
    <glyph glyph-name="i" unicode="i" horiz-adv-x="569" 
d="M398 1321q0 -42 -29.5 -72t-71.5 -30t-72 30t-30 72q0 43 29.5 72t72.5 29q42 0 71.5 -29.5t29.5 -71.5zM519 0h-445v36q102 0 127 56q13 29 13 115v353q0 150 -9 193q-12 57 -63 57q-28 0 -68 -15l-14 36l276 112h44v-736q0 -129 50 -157q25 -14 89 -14v-36z" />
    <glyph glyph-name="j" unicode="j" horiz-adv-x="569" 
d="M400 1320q0 -43 -30 -72.5t-73 -29.5q-42 0 -72 30t-30 72q0 43 29.5 73t72.5 30t73 -30t30 -73zM383 21q0 -200 -78 -320q-92 -143 -282 -143q-60 0 -111 21q-68 28 -68 80q0 34 24 59.5t58 25.5q24 0 53 -13q15 -7 71 -55q45 -39 76 -39q61 0 81 80q11 44 11 189v652
q0 151 -9 194q-12 58 -63 58q-28 0 -68 -15l-14 36l276 112h43v-922z" />
    <glyph glyph-name="k" unicode="k" 
d="M1036 0h-445v36q65 2 65 41q0 23 -40 74l-281 359v-304q0 -132 48 -157q23 -12 100 -13v-36h-466v36q113 0 137 51q15 32 15 114v834q0 219 -30 244q-15 13 -42 13q-21 0 -63 -17l-17 35l272 112h46v-912l233 213q73 67 86 86q8 12 8 24q0 47 -71 51v32h398v-32
q-144 -4 -256 -107l-235 -217l235 -297q94 -119 132 -156q48 -47 84 -61q25 -10 87 -10v-36z" />
    <glyph glyph-name="l" unicode="l" horiz-adv-x="569" 
d="M527 0h-449v36q98 0 122 56q13 30 13 115v832q0 215 -29 239q-15 13 -40 13q-26 0 -66 -16l-17 35l273 112h45v-1215q0 -128 51 -156q27 -15 97 -15v-36z" />
    <glyph glyph-name="m" unicode="m" horiz-adv-x="1593" 
d="M1584 0h-452v36h19q105 0 125 74q4 15 4 97v394q0 113 -27 158q-38 64 -125 64q-104 0 -236 -125l-2 -11l2 -43v-437q0 -70 3 -88q14 -83 146 -83v-36h-463v36q122 0 144 72q5 16 5 99v394q0 113 -33 161q-44 64 -123 64q-53 0 -107 -29q-84 -45 -128 -99v-491
q0 -129 50 -157q25 -14 99 -14v-36h-453v36q101 0 126 57q13 29 13 114v350q0 152 -9 195q-12 58 -63 58q-28 0 -67 -15l-15 36l276 112h43v-195q99 99 118 115q95 80 200 80q188 0 231 -195q81 94 139 135q85 60 181 60q157 0 219 -160q22 -57 22 -182v-394q0 -88 13 -118
q23 -53 125 -53v-36z" />
    <glyph glyph-name="n" unicode="n" 
d="M1015 0h-453v36h19q105 0 125 77q4 15 4 94v375q0 238 -142 238q-119 0 -237 -130v-483q0 -92 11 -115q27 -56 138 -56v-36h-453v36h20q77 0 102 49q17 34 17 122v340q0 225 -30 250q-15 13 -42 13q-28 0 -67 -15l-15 36l276 112h43v-194q161 194 307 194q155 0 215 -161
q22 -59 22 -184v-391q0 -129 50 -157q25 -14 90 -14v-36z" />
    <glyph glyph-name="o" unicode="o" 
d="M953 475q0 -130 -57 -248q-60 -126 -164 -190.5t-231 -64.5q-207 0 -329 165q-103 139 -103 312q0 127 59 246q62 126 166 187t218 61q208 0 334 -158q107 -135 107 -310zM767 398q0 243 -105 384q-72 96 -181 96q-134 0 -193 -142q-33 -79 -33 -203q0 -170 61 -309
q79 -181 228 -181q223 0 223 355z" />
    <glyph glyph-name="p" unicode="p" 
d="M955 491q0 -237 -136 -392q-112 -127 -282 -127q-74 0 -128 21q-41 16 -90 60v-279q0 -74 3 -90q9 -49 49 -70q29 -15 103 -15v-37h-480v37h25q89 0 115 46q19 33 19 135v866q0 126 -33 149q-17 12 -48 12q-24 0 -61 -14l-12 32l282 114h38v-214q128 218 293 218
q138 0 230 -108q113 -132 113 -344zM777 397q0 210 -92 323q-64 78 -152 78q-48 0 -95 -24q-36 -18 -119 -108v-342q0 -110 9 -146q17 -68 77 -108q56 -38 129 -38q100 0 162 78q81 102 81 287z" />
    <glyph glyph-name="q" unicode="q" 
d="M1024 -438h-462v37h19q94 0 117 55q12 29 12 111v394q-158 -187 -300 -187q-161 0 -258 148q-84 129 -84 297q0 219 124 368q132 158 347 158q115 0 191 -64q58 28 111 64h34v-1178q0 -64 4 -85q9 -47 46 -67q26 -14 99 -14v-37zM710 222v430q0 138 -89 191
q-50 30 -113 30q-142 0 -214 -127q-58 -102 -58 -256q0 -150 62 -253q75 -124 216 -124q111 0 196 109z" />
    <glyph glyph-name="r" unicode="r" horiz-adv-x="682" 
d="M695 832q0 -38 -25 -65.5t-63 -27.5q-24 0 -79.5 34.5t-63.5 34.5q-17 0 -39 -20q-46 -42 -93 -135v-439q0 -94 32 -134q36 -44 128 -44v-36h-469v36q118 0 139 73q5 17 5 97v355q0 137 1 121q-5 93 -31 114q-17 14 -44 14q-31 0 -70 -15l-10 36l277 112h42v-206
q115 206 236 206q50 0 88.5 -31t38.5 -80z" />
    <glyph glyph-name="s" unicode="s" horiz-adv-x="797" 
d="M725 250q0 -125 -92 -204q-87 -74 -214 -74q-86 0 -192 30q-35 10 -54 10q-23 0 -36 -26h-33v327h33q24 -121 92 -196q77 -86 192 -86q64 0 108 37q48 39 48 101q0 83 -85 147q-42 32 -164 91q-108 52 -157 100q-71 69 -71 171q0 118 81 192q78 73 197 73q54 0 131 -23
q51 -15 68 -15q27 0 46 38h33v-312h-33q-32 122 -78 178q-61 75 -171 75q-58 0 -104 -30q-52 -34 -52 -89q0 -106 158 -183l146 -71q203 -99 203 -261z" />
    <glyph glyph-name="t" unicode="t" horiz-adv-x="569" 
d="M572 182q-70 -197 -231 -197q-111 0 -155 99q-21 47 -21 146v616h-145v33q123 49 215 199q21 35 64 139h31v-301h214v-70h-214v-594q0 -151 91 -151q78 0 112 81h39z" />
    <glyph glyph-name="u" unicode="u" 
d="M1021 85l-274 -113h-45v194q-89 -97 -137 -132q-85 -62 -174 -62q-162 0 -212 159q-22 70 -22 198v409q0 102 -55 129q-26 13 -100 12v37h321v-613q0 -208 152 -208q99 0 227 130v519q0 81 -34 109q-30 24 -113 26v37h312v-555q0 -217 32 -244q16 -14 38 -14q31 0 70 17z
" />
    <glyph glyph-name="v" unicode="v" 
d="M1005 879q-52 -4 -72 -21q-33 -28 -63 -100l-325 -786h-41l-327 773q-37 88 -93 117q-17 9 -67 17v37h431v-37h-28q-80 0 -80 -70q0 -33 21 -83l213 -506l214 525q23 56 23 85q0 14 -8 23q-19 26 -97 26v37h299v-37z" />
    <glyph glyph-name="w" unicode="w" horiz-adv-x="1479" 
d="M1460 879q-87 -13 -128 -118l-306 -789h-41l-229 585l-267 -585h-37l-294 770q-25 65 -51 92q-31 31 -94 45v37h384v-37q-86 -6 -86 -62q0 -29 17 -75l196 -527l197 429l-52 135q-22 58 -63 83q-23 14 -82 17v37h436v-37q-122 -5 -122 -77q0 -21 8 -41l208 -526l193 507
q20 53 20 86q0 48 -96 51v37h289v-37z" />
    <glyph glyph-name="x" unicode="x" 
d="M999 0h-432v36q89 0 89 57q0 22 -64 116l-134 196l-147 -196q-68 -91 -68 -108q0 -61 90 -65v-36h-299v36q37 5 63 25q39 30 128 148l192 255l-174 252q-60 87 -88 113q-54 50 -128 50v37h431v-37q-74 0 -74 -51q0 -24 35 -74q17 -24 33 -50l65 -104l75 104
q72 100 72 125q0 50 -72 50v37h310v-37q-49 -3 -85 -27q-47 -32 -134 -148l-125 -167l228 -328q66 -95 87 -116q53 -53 126 -57v-36z" />
    <glyph glyph-name="y" unicode="y" 
d="M1012 879q-63 -7 -101 -61q-6 -9 -34 -77l-373 -914q-44 -108 -119 -181q-89 -88 -191 -88q-53 0 -92 29q-43 32 -43 83q0 93 103 93q32 0 90 -22q39 -15 50 -15q75 0 137 151l65 159l-329 691q-14 30 -48 77q-26 36 -41 47q-22 16 -74 28v37h427v-37h-21q-90 0 -90 -68
q0 -40 33 -108l223 -462l205 506q17 42 17 81q0 33 -32 45q-16 6 -60 6v37h298v-37z" />
    <glyph glyph-name="z" unicode="z" horiz-adv-x="909" 
d="M876 879l-614 -812h334q83 0 116 9q59 16 87 70q16 31 27 135h34l-11 -281h-808v36l608 810h-300q-77 0 -100 -5q-98 -21 -107 -179h-40l6 254h768v-37z" />
    <glyph glyph-name="braceleft" unicode="{" horiz-adv-x="676" 
d="M635 -412h-138q-167 0 -260 83q-98 86 -98 250q0 54 11 112l50 252q6 28 6 59q0 162 -114 217q114 52 114 213q0 31 -6 60l-50 243q-12 61 -12 117q0 162 99 247q93 79 260 79h138v-90h-96q-88 0 -140 -42q-71 -57 -71 -196q0 -42 8 -89l47 -272q2 -12 2 -26
q0 -69 -44 -143.5t-103 -100.5q58 -24 104 -114q43 -84 43 -158q0 -15 -2 -27l-47 -262q-9 -47 -9 -89q0 -121 57 -178q53 -55 155 -55h96v-90z" />
    <glyph glyph-name="bar" unicode="|" horiz-adv-x="258" 
d="M195 0h-129v1194h129v-1194z" />
    <glyph glyph-name="braceright" unicode="}" horiz-adv-x="676" 
d="M584 561q-113 -55 -113 -217q0 -31 5 -59l50 -252q12 -58 12 -112q0 -163 -98 -250q-94 -83 -260 -83h-139v90h96q102 0 157 56t55 177q0 42 -8 89l-47 262q-3 12 -3 27q0 74 43 158q46 90 104 114q-58 26 -102.5 100.5t-44.5 143.5q0 14 3 26l47 272q8 47 8 89
q0 116 -49 174q-54 64 -163 64h-96v90h139q166 0 259 -79q100 -85 100 -247q0 -56 -13 -117l-50 -243q-5 -29 -5 -60q0 -161 113 -213z" />
    <glyph glyph-name="asciitilde" unicode="~" horiz-adv-x="1112" 
d="M1081 645q-135 -237 -311 -237q-68 0 -134 29l-104 46q-121 70 -202 70q-70 0 -127 -51q-39 -35 -107 -131l-76 100q123 217 305 217q74 0 240 -76q171 -58 209 -58q116 0 209 155z" />
    <glyph glyph-name="nonbreakingspace" unicode="&#xa0;" horiz-adv-x="453" 
 />
    <glyph glyph-name="exclamdown" unicode="&#xa1;" horiz-adv-x="623" 
d="M340 822l-115 -119l-119 121l117 119zM328 107q-3 -139 -45 -274l-177 211q78 220 78 430v86q151 -168 144 -453z" />
    <glyph glyph-name="cent" unicode="&#xa2;" 
d="M900 349q-47 -188 -163 -292q-90 -81 -221 -81q-81 0 -162 35l-142 -390h-70l155 427q-81 76 -117 154q-51 110 -51 250q0 253 157 390q121 105 273 105q20 0 61 -4l140 383h72l-145 -402q101 -45 138 -87q48 -54 48 -115q0 -85 -94 -85q-55 0 -86 38q-18 22 -26 82
q-4 31 -17 65l-228 -631q87 -61 163 -61q129 0 202 86q32 38 83 146zM593 865q-28 12 -60 12q-102 0 -162 -74q-82 -100 -82 -268q0 -137 81 -285z" />
    <glyph glyph-name="sterling" unicode="&#xa3;" horiz-adv-x="907" 
d="M799 176l-62 -176h-671l69 176h60q20 113 20 244q0 20 -1 60.5t-1 60.5h-109l56 147h47q-3 25 -2 70q3 170 116 292q117 126 285 128q107 1 189 -66l-95 -147q-106 67 -196 67q-142 0 -142 -160q0 -32 9 -182h168l-58 -147h-106q-8 -247 -94 -367h518z" />
    <glyph glyph-name="currency" unicode="&#xa4;" 
d="M995 253l-58 -55l-143 143q-134 -103 -270 -103q-77 0 -158 26q-91 29 -137 77l-146 -143l-56 55l144 145q-102 117 -102 282q0 157 102 283l-144 141l56 57l146 -142q118 102 285 102q162 0 280 -102l143 142l58 -57l-144 -141q103 -132 103 -281q0 -154 -103 -284z
M874 679q0 97 -50 182.5t-135 132t-177 46.5q-155 0 -258.5 -104t-103.5 -259q0 -153 104 -256t257 -103t258 104t105 257z" />
    <glyph glyph-name="yen" unicode="&#xa5;" 
d="M1023 352h-426v-108q0 -113 11 -143q22 -60 119 -60h41v-41h-515v41h32q118 0 137 83q4 18 4 120v108h-424v73h424v144l-15 36h-409v73h377l-213 496q-31 73 -59 102q-39 41 -105 42v38h442v-38q-121 -8 -121 -62q0 -15 18 -59l214 -519l213 504q21 50 21 75q0 21 -21 41
q-13 13 -64 17q-7 1 -27 3v38h346v-38q-59 0 -87 -23q-44 -36 -86 -132l-214 -485h387v-73h-419l-7 -16v-164h426v-73z" />
    <glyph glyph-name="brokenbar" unicode="&#xa6;" horiz-adv-x="410" 
d="M244 680h-83v742h83v-742zM244 -442h-83v742h83v-742z" />
    <glyph glyph-name="section" unicode="&#xa7;" horiz-adv-x="907" 
d="M809 592q2 -76 -133 -219q102 -46 102 -168q0 -112 -117 -181q-100 -59 -219 -59q-161 0 -313 78l117 156q191 -121 336 -121q33 0 60.5 23t27.5 55q0 43 -125 102l-305 145q-142 68 -142 166q0 110 135 226q-108 60 -108 166q0 114 102 183q89 60 209 60q168 0 322 -92
l-111 -141q-169 131 -313 131q-37 0 -66 -23q-32 -25 -32 -61q0 -40 54 -73q19 -11 113 -56l230 -109q173 -82 176 -188zM674 498q1 76 -109 129l-280 135q-64 -64 -64 -107q0 -59 117 -114l285 -135q50 44 51 92z" />
    <glyph glyph-name="dieresis" unicode="&#xa8;" horiz-adv-x="682" 
d="M626 1228q0 -45 -31.5 -76.5t-76.5 -31.5t-77 31.5t-32 76.5t32 77t77 32t76.5 -32t31.5 -77zM274 1228q0 -45 -31.5 -76.5t-76.5 -31.5t-77 31.5t-32 76.5t31.5 77t76.5 32q46 0 77.5 -31.5t31.5 -77.5z" />
    <glyph glyph-name="copyright" unicode="&#xa9;" horiz-adv-x="1556" 
d="M1488 678q0 -192 -95 -356q-96 -167 -262 -259q-170 -94 -353 -94q-194 0 -357 94q-166 96 -259 263.5t-93 351.5q0 193 97 360.5t265 258t347 90.5q190 0 355 -94q169 -95 260 -259q95 -171 95 -356zM1426 678q0 177 -88 329t-242 235.5t-318 83.5q-171 0 -324 -87.5
t-236 -235.5q-87 -156 -87 -325q0 -176 87 -327t239.5 -236t320.5 -85q176 0 327.5 87t236 239.5t84.5 321.5zM1166 431q-139 -203 -383 -203q-198 0 -329 122q-134 125 -134 322q0 209 146 338q141 125 352 125q70 0 185 -38q24 -8 37 -8q31 0 49 45h40l20 -280h-39
q-71 236 -303 236q-161 0 -246 -118q-75 -104 -75 -271q0 -182 72 -288q85 -125 259 -125q195 0 312 162z" />
    <glyph glyph-name="ordfeminine" unicode="&#xaa;" horiz-adv-x="565" 
d="M563 857q-102 -74 -149 -74q-57 0 -73 95q-127 -91 -215 -91q-53 0 -92 35.5t-39 88.5q0 91 129 170q51 31 217 99q0 83 -14 118q-23 58 -92 58q-67 0 -86 -45q-2 -18 -13 -85q-7 -45 -53 -45q-56 0 -56 60q0 78 84 115q63 28 150 28q166 0 205 -95q13 -32 13 -109v-218
q0 -53 2 -61q6 -26 24 -26q14 0 58 30v-48zM341 916v226q-207 -69 -207 -184q0 -36 26.5 -61t62.5 -25q44 0 118 44z" />
    <glyph glyph-name="guillemotleft" unicode="&#xab;" 
d="M960 -8h-58l-394 472l394 470h58l-243 -470zM508 -8h-57l-387 472l387 470h57l-244 -470z" />
    <glyph glyph-name="logicalnot" unicode="&#xac;" horiz-adv-x="1155" 
d="M1116 472h-79v325h-1001v81h1080v-406z" />
    <glyph glyph-name="sfthyphen" unicode="&#xad;" horiz-adv-x="1155" 
d="M1116 797h-1080v81h1080v-81z" />
    <glyph glyph-name="sfthyphen" unicode="&#x2212;" horiz-adv-x="1155" 
d="M1116 797h-1080v81h1080v-81z" />
    <glyph glyph-name="registered" unicode="&#xae;" horiz-adv-x="1556" 
d="M1488 678q0 -192 -95 -356q-96 -167 -262 -259q-170 -94 -353 -94q-194 0 -357 94q-166 96 -259 263.5t-93 351.5q0 193 97 360.5t265 258t347 90.5q190 0 355 -94q169 -95 260 -259q95 -171 95 -356zM1426 678q0 177 -88 329t-242 235.5t-318 83.5q-171 0 -324 -87.5
t-236 -235.5q-87 -156 -87 -325q0 -176 87 -327t239.5 -236t320.5 -85q176 0 327.5 87t236 239.5t84.5 321.5zM1177 249h-184l-294 405h-76v-309q11 -63 118 -63v-33h-367v33q78 0 97 45q7 17 7 93v523q0 76 -3 87q-13 48 -89 48v36h386q120 0 201 -51q96 -60 96 -173
q0 -164 -222 -222l209 -298q37 -53 68 -73q18 -12 53 -15v-33zM908 879q0 86 -57 138.5t-144 52.5q-38 0 -84 -16v-357q195 0 256 88q29 42 29 94z" />
    <glyph glyph-name="macron" unicode="&#xaf;" 
d="M1043 1421h-1059v84h1059v-84z" />
    <glyph glyph-name="macron" unicode="&#x2c9;" 
d="M1043 1421h-1059v84h1059v-84z" />
    <glyph glyph-name="degree" unicode="&#xb0;" horiz-adv-x="797" 
d="M711 1038q0 -133 -90.5 -222t-223.5 -89q-132 0 -222.5 89.5t-90.5 221.5q0 133 90 223.5t223 90.5t223.5 -90.5t90.5 -223.5zM633 1038q0 101 -65.5 166.5t-166.5 65.5q-100 0 -165.5 -66t-65.5 -166t65.5 -165.5t165.5 -65.5t166 65.5t66 165.5z" />
    <glyph glyph-name="plusminus" unicode="&#xb1;" horiz-adv-x="1251" 
d="M1120 377h-415v-307h-123v307h-416v123h416v434h123v-434h415v-123zM1120 -123h-954v123h954v-123z" />
    <glyph glyph-name="twosuperior" unicode="&#xb2;" horiz-adv-x="567" 
d="M516 838l-49 -121h-395q31 155 123 266q10 12 97 114q56 66 56 117q0 108 -143 111q-53 1 -92 -10q32 78 53 117q43 12 94 12q90 0 149 -44q66 -49 66 -136q0 -93 -74 -166l-131 -129q-57 -57 -67 -131h313z" />
    <glyph glyph-name="threesuperior" unicode="&#xb3;" horiz-adv-x="567" 
d="M502 987q0 -127 -84 -214t-211 -87q-77 0 -141 41l75 115q46 -39 115 -39q56 0 98 31q47 34 47 88q0 53 -54 86q-45 28 -103 30q-28 1 -66 -10l17 90q118 58 118 144q0 64 -116 67q-32 1 -78 -4q8 23 55 113q28 6 62 6q81 0 138 -36q68 -42 68 -118q0 -107 -108 -160
q64 0 114 -39q54 -42 54 -104z" />
    <glyph glyph-name="acute" unicode="&#xb4;" horiz-adv-x="682" 
d="M565 1390l-295 -345h-34l105 345h224z" />
    <glyph glyph-name="micro" unicode="&#xb5;" horiz-adv-x="1180" 
d="M1094 204q-17 -232 -198 -232q-141 0 -158 190q-162 -190 -314 -190q-54 0 -92 21q-27 15 -63 64q-1 -31 -1 -46q0 -79 34 -239q13 -61 13 -104t-25 -75q-27 -35 -69 -35q-87 0 -87 109q0 47 29 165q19 78 22 104q12 106 12 179v47l-1 28v726h164v-533q0 -144 18 -198
q30 -90 124 -90q118 0 236 134v687h165v-654q0 -102 8 -131q14 -51 60 -51q62 0 81 124h42z" />
    <glyph glyph-name="micro" unicode="&#x3bc;" horiz-adv-x="1180" 
d="M1094 204q-17 -232 -198 -232q-141 0 -158 190q-162 -190 -314 -190q-54 0 -92 21q-27 15 -63 64q-1 -31 -1 -46q0 -79 34 -239q13 -61 13 -104t-25 -75q-27 -35 -69 -35q-87 0 -87 109q0 47 29 165q19 78 22 104q12 106 12 179v47l-1 28v726h164v-533q0 -144 18 -198
q30 -90 124 -90q118 0 236 134v687h165v-654q0 -102 8 -131q14 -51 60 -51q62 0 81 124h42z" />
    <glyph glyph-name="paragraph" unicode="&#xb6;" horiz-adv-x="928" 
d="M932 1301h-133v-1743h-72v1743h-187v-1743h-73v1043q-158 7 -243 35q-237 78 -237 345q0 109 43 180q119 195 407 195h495v-55z" />
    <glyph glyph-name="periodcentered" unicode="&#xb7;" horiz-adv-x="682" 
d="M705 703q0 -43 -31 -74t-74 -31t-74 31t-31 74q0 44 30.5 74.5t74.5 30.5t74.5 -30.5t30.5 -74.5z" />
    <glyph glyph-name="periodcentered" unicode="&#x2219;" horiz-adv-x="682" 
d="M705 703q0 -43 -31 -74t-74 -31t-74 31t-31 74q0 44 30.5 74.5t74.5 30.5t74.5 -30.5t30.5 -74.5z" />
    <glyph glyph-name="cedilla" unicode="&#xb8;" horiz-adv-x="682" 
d="M496 -209q0 -83 -68 -134q-61 -47 -147 -47q-37 0 -94 7v43q28 -4 48 -4q48 0 84.5 31.5t36.5 78.5q0 32 -24 53t-56 21q-10 0 -26 -2l111 178h60l-50 -79q125 -32 125 -146z" />
    <glyph glyph-name="onesuperior" unicode="&#xb9;" horiz-adv-x="567" 
d="M518 838l-72 -121h-364l65 121h99v428q-69 55 -135 80q111 76 247 106v-614h160z" />
    <glyph glyph-name="ordmasculine" unicode="&#xba;" horiz-adv-x="635" 
d="M611 1091q0 -128 -86 -216t-214 -88q-124 0 -203 82t-79 206q0 138 79.5 223.5t215.5 85.5q126 0 206.5 -83t80.5 -210zM473 1023q0 157 -71 256q-44 62 -106 62q-126 0 -126 -188q0 -158 69 -258q39 -57 102 -57q132 0 132 185z" />
    <glyph glyph-name="guillemotright" unicode="&#xbb;" 
d="M960 462l-387 -470h-57l244 470l-244 472h57zM516 462l-394 -470h-58l243 470l-243 472h58z" />
    <glyph glyph-name="onequarter" unicode="&#xbc;" horiz-adv-x="1360" 
d="M1348 305l-72 -123h-86v-139l-113 -53v192h-264q0 7 -1 20.5t-1 20.5q0 194 111 331q107 133 297 185q-27 -56 -27 -110v-324h156zM1145 1192l-783 -1221h-100l780 1221h103zM518 592l-72 -121h-364l65 121h99v428q-69 55 -135 80q111 76 247 106v-614h160zM1077 305v273
q-76 -33 -124 -110.5t-48 -162.5h172z" />
    <glyph glyph-name="onehalf" unicode="&#xbd;" horiz-adv-x="1360" 
d="M1303 121l-50 -121h-395q31 159 123 266l98 114q56 65 56 118q0 108 -144 110q-56 1 -92 -10q33 78 53 117q43 12 95 12q90 0 149 -44q66 -49 66 -136q0 -92 -74 -165q-33 -33 -131 -130q-57 -57 -68 -131h314zM1145 1192l-783 -1221h-100l780 1221h103zM518 592
l-72 -121h-364l65 121h99v428q-69 55 -135 80q111 76 247 106v-614h160z" />
    <glyph glyph-name="threequarters" unicode="&#xbe;" horiz-adv-x="1360" 
d="M1348 305l-72 -123h-86v-139l-113 -53v192h-264q0 7 -1 20.5t-1 20.5q0 194 111 331q107 133 297 185q-27 -56 -27 -110v-324h156zM1145 1192l-783 -1221h-100l780 1221h103zM502 741q0 -127 -84 -214t-211 -87q-77 0 -141 41l75 115q46 -39 115 -39q56 0 98 31
q47 34 47 88q0 53 -54 86q-45 28 -103 31q-24 1 -66 -11l17 90q118 58 118 144q0 64 -116 67q-32 1 -78 -4q8 23 55 113q28 6 62 6q81 0 138 -36q68 -42 68 -118q0 -107 -108 -159q65 0 114 -39q54 -42 54 -105zM1077 305v273q-76 -33 -124 -110.5t-48 -162.5h172z" />
    <glyph glyph-name="questiondown" unicode="&#xbf;" horiz-adv-x="737" 
d="M479 820l-110 -123l-117 119l110 127zM561 40l-115 -168q-12 -2 -34 -2q-109 0 -177 53q-75 58 -75 164q0 52 70.5 162t70.5 137q0 50 -43 80l115 125q61 -69 61 -123q0 -73 -59 -152q-43 -58 -43 -118q0 -72 52 -118q49 -45 122 -46q31 -1 55 6z" />
    <glyph glyph-name="multiply" unicode="&#xd7;" horiz-adv-x="1251" 
d="M1073 80l-67 -74l-363 373l-362 -373l-74 74l362 373l-362 366l74 74l362 -367l363 373l67 -74l-356 -372z" />
    <glyph glyph-name="divide" unicode="&#xf7;" horiz-adv-x="1251" 
d="M748 762q0 -46 -32.5 -77.5t-78.5 -31.5t-78.5 31.5t-32.5 77.5t32.5 78t78.5 32t78.5 -32t32.5 -78zM1120 377h-954v123h954v-123zM748 113q0 -46 -32.5 -77.5t-78.5 -31.5t-78.5 31.5t-32.5 77.5t32.5 78t78.5 32t78.5 -32t32.5 -78z" />
    <glyph glyph-name="florin" unicode="&#x192;" 
d="M999 1275q0 -77 -68 -77q-24 0 -43.5 16.5t-19.5 39.5q0 11 11 33.5t11 27.5q0 26 -35 26q-80 0 -104 -108q-28 -126 -64 -358h178l-17 -66h-174q-53 -274 -172 -708q-93 -339 -205 -449q-85 -83 -173 -83q-51 0 -85 27q-37 29 -37 78q0 35 21.5 62t55.5 27
q24 0 44.5 -16.5t20.5 -39.5q0 -14 -12 -36l-12 -21q0 -21 25 -21q50 0 96 74q28 45 60 177q13 54 86 415q6 32 123 514h-177l15 66l90 7q61 11 93 63q13 21 44 111q53 153 95 216q77 115 192 115q55 0 93 -28q44 -31 44 -84z" />
    <glyph glyph-name="sheva" unicode="&#x5b0;" horiz-adv-x="147" 
d="M147 -279h-147v146h147v-146zM147 -510h-147v145h147v-145z" />
    <glyph glyph-name="hatafsegol" unicode="&#x5b1;" horiz-adv-x="651" 
d="M651 -279h-147v146h147v-146zM651 -510h-147v145h147v-145zM399 -279h-147v146h147v-146zM147 -279h-147v146h147v-146zM274 -510h-147v145h147v-145z" />
    <glyph glyph-name="hatafpatah" unicode="&#x5b2;" horiz-adv-x="635" 
d="M635 -279h-148v146h148v-146zM635 -510h-148v145h148v-145zM399 -256h-399v123h399v-123z" />
    <glyph glyph-name="hatafqamats" unicode="&#x5b3;" horiz-adv-x="635" 
d="M635 -279h-148v146h148v-146zM635 -510h-148v145h148v-145zM399 -256h-145l8 -207h-121l6 207h-147v123h399v-123z" />
    <glyph glyph-name="hiriq" unicode="&#x5b4;" horiz-adv-x="147" 
d="M147 -279h-147v146h147v-146z" />
    <glyph glyph-name="tsere" unicode="&#x5b5;" horiz-adv-x="399" 
d="M399 -279h-147v146h147v-146zM147 -279h-147v146h147v-146z" />
    <glyph glyph-name="segol" unicode="&#x5b6;" horiz-adv-x="399" 
d="M399 -279h-147v146h147v-146zM147 -279h-147v146h147v-146zM274 -510h-147v145h147v-145z" />
    <glyph glyph-name="patah" unicode="&#x5b7;" horiz-adv-x="399" 
d="M399 -256h-399v123h399v-123z" />
    <glyph glyph-name="qamats" unicode="&#x5b8;" horiz-adv-x="399" 
d="M399 -256h-145l8 -207h-121l6 207h-147v123h399v-123z" />
    <glyph glyph-name="holam" unicode="&#x5b9;" horiz-adv-x="147" 
d="M147 1135h-147v145h147v-145z" />
    <glyph glyph-name="qibuts" unicode="&#x5bb;" horiz-adv-x="651" 
d="M651 -510h-147v145h147v-145zM399 -395h-147v145h147v-145zM147 -279h-147v146h147v-146z" />
    <glyph glyph-name="dagesh" unicode="&#x5bc;" horiz-adv-x="147" 
d="M147 442h-147v146h147v-146z" />
    <glyph glyph-name="meteg" unicode="&#x5bd;" horiz-adv-x="92" 
d="M92 -393h-92v260h92v-260z" />
    <glyph glyph-name="maqaf" unicode="&#x5be;" horiz-adv-x="397" 
d="M397 1221h-397v194h397v-194z" />
    <glyph glyph-name="rafe" unicode="&#x5bf;" horiz-adv-x="680" 
d="M627 989l-82 -158h-482l76 158h488z" />
    <glyph glyph-name="paseq" unicode="&#x5c0;" horiz-adv-x="573" 
d="M342 0h-111v1296h111v-1296z" />
    <glyph glyph-name="shindot" unicode="&#x5c1;" horiz-adv-x="1247" 
d="M999 1135h-147v145h147v-145z" />
    <glyph glyph-name="sindot" unicode="&#x5c2;" horiz-adv-x="1247" 
d="M270 1135h-147v145h147v-145z" />
    <glyph glyph-name="sofpasuq" unicode="&#x5c3;" horiz-adv-x="793" 
d="M469 657l-152 -149l-145 147l143 152zM469 121l-147 -152l-148 150l141 151z" />
    <glyph glyph-name="alef" unicode="&#x5d0;" horiz-adv-x="1028" 
d="M956 19q0 -19 -35 -19h-179l-374 574q-64 -56 -64 -147v-427h-204v211q0 327 216 445l-216 329q-8 12 -8 22q0 21 34 21h176l344 -527q31 20 56 89q22 62 22 103v335h204v-166q0 -315 -226 -448l244 -369q10 -16 10 -26z" />
    <glyph glyph-name="bet" unicode="&#x5d1;" horiz-adv-x="896" 
d="M819 50q0 -18 -5 -50h-732q-3 28 -3 50q0 15 3 50h274q118 0 178 158q44 114 44 256q0 150 -40 258q-58 154 -182 154h-274q-3 28 -3 49q0 23 3 53h341q184 0 282 -140q86 -122 86 -314q0 -141 -35 -260q-46 -153 -139 -214h197q5 -31 5 -50z" />
    <glyph glyph-name="gimel" unicode="&#x5d2;" horiz-adv-x="699" 
d="M613 0h-193q-15 45 -29 217q-1 15 -8 15q-8 0 -14 -17q-50 -122 -112 -177q-74 -65 -196 -65q8 56 31 115q132 28 213 158q74 118 74 260v209q0 211 -168 211h-109q-8 39 -7 53q2 11 7 49h156q325 0 325 -317v-326q0 -260 30 -385z" />
    <glyph glyph-name="dalet" unicode="&#x5d3;" horiz-adv-x="911" 
d="M827 982q2 -20 -8 -56h-106v-926h-197v926h-448q-11 42 -11 53q0 2 11 49h751q4 -17 8 -46z" />
    <glyph glyph-name="he" unicode="&#x5d4;" horiz-adv-x="977" 
d="M864 0h-204v700q0 93 -51 156q-54 68 -145 68h-351q-8 37 -7 55q0 17 7 49h398q353 0 353 -328v-700zM319 0h-204v604q96 77 204 86v-690z" />
    <glyph glyph-name="vav" unicode="&#x5d5;" horiz-adv-x="429" 
d="M317 0h-204v1028h204v-1028z" />
    <glyph glyph-name="zayin" unicode="&#x5d6;" horiz-adv-x="610" 
d="M543 1028q-5 -50 -43 -100q-55 -21 -91 -67q-61 -79 -61 -232q0 -52 9 -111l73 -518h-209l-68 467q-7 44 -7 88q0 115 40 214q49 122 140 157h-221q-6 34 -7 45q-1 10 4 57h441z" />
    <glyph glyph-name="het" unicode="&#x5d7;" horiz-adv-x="988" 
d="M876 0h-202v733q0 191 -165 191h-176q-19 0 -19 -19v-905h-201v918q0 110 103 110h330q330 0 330 -297v-731z" />
    <glyph glyph-name="tet" unicode="&#x5d8;" horiz-adv-x="1035" 
d="M932 535q0 -239 -83 -382q-103 -180 -322 -180q-205 0 -317 166q-97 144 -97 360v529h206v-521q0 -284 103 -383q44 -42 105 -42q157 0 187 328q5 51 5 97q0 164 -13 240q-30 170 -123 170q-47 0 -81 -40q-20 17 -39 33q-22 19 -26 43q74 81 224 81q171 0 233 -177
q38 -109 38 -322z" />
    <glyph glyph-name="yod" unicode="&#x5d9;" horiz-adv-x="432" 
d="M319 473q-87 -84 -206 -102v657h206v-555z" />
    <glyph glyph-name="kaffinal" unicode="&#x5da;" horiz-adv-x="899" 
d="M786 -294h-204v1005q0 92 -51 151q-54 62 -144 62h-305q-7 36 -7 49q0 21 7 55h351q353 0 353 -328v-994z" />
    <glyph glyph-name="kaf" unicode="&#x5db;" horiz-adv-x="888" 
d="M786 516q0 -233 -95 -365q-108 -151 -329 -151h-260q-2 28 -2 50t2 52h222q251 0 251 414q0 408 -251 408h-222q-6 29 -4 55q1 14 4 49h260q424 0 424 -512z" />
    <glyph glyph-name="lamed" unicode="&#x5dc;" horiz-adv-x="938" 
d="M836 633q0 -278 -131 -446q-140 -178 -406 -199q-7 24 -5 54q1 15 5 48q98 16 170 84q153 146 153 453q0 297 -158 297h-281q-101 0 -101 92v264h195v-221q0 -31 33 -31h198q183 0 259 -100q69 -91 69 -295z" />
    <glyph glyph-name="memfinal" unicode="&#x5dd;" horiz-adv-x="1012" 
d="M899 72q0 -44 -16 -58t-57 -14h-638q-75 0 -75 72v846q0 110 103 110h368q231 0 292 -152q23 -59 23 -145v-659zM698 125v647q0 63 -45 107.5t-109 44.5h-211q-19 0 -19 -19v-780q0 -23 24 -23h336q24 0 24 23z" />
    <glyph glyph-name="mem" unicode="&#x5de;" horiz-adv-x="1073" 
d="M971 518q0 -532 -372 -532q-63 0 -125 18q3 37 26 100q36 -18 69 -18q186 0 186 426q0 414 -196 414q-173 0 -210 -402l-48 -524h-203l42 491q28 328 200 433h-230q-3 32 -3 47q0 20 3 57h503q358 0 358 -510z" />
    <glyph glyph-name="nunfinal" unicode="&#x5df;" horiz-adv-x="429" 
d="M317 -294h-204v1322h204v-1322z" />
    <glyph glyph-name="nun" unicode="&#x5e0;" horiz-adv-x="704" 
d="M591 82q0 -57 -34 -73q-18 -9 -51 -9h-424q-3 36 -3 54q0 24 5 48h279q24 0 24 21v602q0 120 -51 166q-38 35 -106 35h-95q-8 36 -8 49q2 11 8 53h131q154 0 234 -69q91 -78 91 -248v-629z" />
    <glyph glyph-name="samekh" unicode="&#x5e1;" horiz-adv-x="1063" 
d="M961 517q0 -235 -93 -377q-110 -167 -331 -167q-182 0 -295 116q-136 138 -136 387q0 129 45 248q53 142 147 200h-175q-6 38 -6 55q0 13 4 49h480q186 0 282 -171q78 -138 78 -340zM746 497q0 427 -213 427q-215 0 -215 -427q0 -150 40 -260q57 -157 179 -157
q187 0 207 348q2 34 2 69z" />
    <glyph glyph-name="ayin" unicode="&#x5e2;" horiz-adv-x="995" 
d="M882 367q0 -171 -90 -268q-93 -99 -261 -99h-429q-5 48 -5 54q0 24 5 48h261q-81 81 -146 251q-103 267 -103 651q0 24 26 24h181q0 -364 69 -644q39 -161 114 -282q81 0 120 46q52 59 52 202v678h206v-661z" />
    <glyph glyph-name="pefinal" unicode="&#x5e3;" horiz-adv-x="976" 
d="M863 -294h-204v962q0 96 -40 168q-49 88 -137 88q-82 0 -132 -87q-44 -74 -44 -161q0 -116 52 -200q-27 -33 -86 -68q-53 -30 -87 -38q-34 36 -58 111q-22 71 -22 129q0 94 46 181.5t125 132.5h-174q-5 26 -5 47l5 57h420q162 0 251.5 -88.5t89.5 -251.5v-982z" />
    <glyph glyph-name="pe" unicode="&#x5e4;" horiz-adv-x="1005" 
d="M902 524q0 -524 -388 -524h-405q-3 30 -3 54q0 20 3 48h367q175 0 207 317q6 52 6 105q0 400 -201 400q-87 0 -135 -84q-40 -70 -40 -164q0 -116 51 -200q-64 -79 -173 -106q-34 36 -58 111q-22 71 -22 129q0 90 45 177q47 92 121 137h-168q-6 28 -5 51q1 15 5 53h419
q374 0 374 -504z" />
    <glyph glyph-name="tsadifinal" unicode="&#x5e5;" horiz-adv-x="955" 
d="M853 858q0 -159 -80 -291.5t-220 -205.5q89 -140 89 -347v-308h-200v327q0 122 -56 247q-32 71 -126 221q-185 293 -188 502q0 25 26 25h187q24 -345 220 -582q141 105 141 371v211h207v-170z" />
    <glyph glyph-name="tsadi" unicode="&#x5e6;" horiz-adv-x="976" 
d="M873 848q0 -303 -290 -497q69 -72 221 -191q40 -31 40 -74q0 -86 -98 -86h-643q-5 46 -5 58q1 17 5 44h459q15 0 18 16q2 16 -10 25q-210 163 -340 378q-145 239 -148 482q0 25 26 25h182q12 -218 86 -395q49 -118 136 -209q67 66 107 150q48 103 48 212v242h206v-180z
" />
    <glyph glyph-name="qof" unicode="&#x5e7;" horiz-adv-x="1032" 
d="M929 592q0 -233 -127 -404q-139 -188 -363 -188q-6 23 -5 50q2 17 5 52q274 61 274 484q0 147 -24 218q-40 120 -157 120h-420q-4 20 -8 51q0 11 8 53h471q178 0 256 -84q90 -98 90 -352zM316 -295h-202v907q50 44 94 63q51 21 108 30v-1000z" />
    <glyph glyph-name="resh" unicode="&#x5e8;" horiz-adv-x="885" 
d="M773 0h-204v700q0 93 -51 156q-54 68 -145 68h-304q-7 35 -8 51q0 18 8 53h350q354 0 354 -328v-700z" />
    <glyph glyph-name="shin" unicode="&#x5e9;" horiz-adv-x="1222" 
d="M1109 399q0 -399 -386 -399h-243q-180 0 -276 111q-91 105 -91 288v629h199v-670q0 -11 11 -11q43 0 93 50q95 94 95 262v369h199v-309q0 -219 -126 -341q-97 -95 -270 -116q6 -68 56.5 -115t118.5 -47h223q102 0 154 86q44 72 44 183v659h199v-629z" />
    <glyph glyph-name="tav" unicode="&#x5ea;" horiz-adv-x="1034" 
d="M922 0h-202v743q0 181 -165 181h-176q-19 0 -19 -19v-637q0 -175 -76 -241q-60 -52 -176 -52q-53 0 -98 25q12 30 33 90q18 -12 45 -12q71 0 71 90v750q0 110 103 110h330q170 0 246 -69q84 -77 84 -228v-731z" />
    <glyph glyph-name="geresh" unicode="&#x5f3;" horiz-adv-x="453" 
d="M344 870q0 -118 -75 -247l-130 -224l-49 -20l60 174q34 99 34 190q0 84 -49 146l139 166q70 -91 70 -185z" />
    <glyph glyph-name="gershayim" unicode="&#x5f4;" horiz-adv-x="907" 
d="M793 870q0 -118 -75 -247l-130 -224l-49 -20l60 174q34 99 34 190q0 84 -49 146l139 166q70 -91 70 -185zM365 870q0 -118 -75 -247l-130 -224l-49 -20l60 174q34 99 34 190q0 84 -49 146l139 166q70 -91 70 -185z" />
    <glyph glyph-name="lefttoright" unicode="&#x200e;" horiz-adv-x="831" 
d="M768 918l-336 -312v221h-143v-827h-176v1004h319v225z" />
    <glyph glyph-name="righttoleft" unicode="&#x200f;" horiz-adv-x="831" 
d="M719 0h-176v827h-144v-221l-336 312l336 311v-225h320v-1004z" />
    <glyph glyph-name="hyphenminus" unicode="&#x2010;" horiz-adv-x="680" 
d="M592 656l-47 -144h-457l51 158z" />
    <glyph glyph-name="endash" unicode="&#x2013;" 
d="M1042 453h-1059v73h1059v-73z" />
    <glyph glyph-name="quotedash" unicode="&#x2015;" horiz-adv-x="2048" 
d="M2067 453h-2085v74h2085v-74z" />
    <glyph glyph-name="quoteleft" unicode="&#x2018;" horiz-adv-x="682" 
d="M490 986q0 -51 -31 -79q-43 -38 -100 -38q-75 0 -126 63q-48 58 -48 135q0 119 88 215q59 64 171 105v-43q-102 -62 -139 -115q-27 -39 -27 -92q0 -62 38 -62q11 0 35.5 8t36.5 8q43 0 72.5 -31t29.5 -74z" />
    <glyph glyph-name="quoteright" unicode="&#x2019;" horiz-adv-x="682" 
d="M498 1190q0 -118 -89 -215q-59 -64 -171 -106v47q104 61 140 114q26 38 26 91q0 61 -37 61q-12 0 -36 -8t-36 -8q-43 0 -72.5 31t-29.5 74q0 50 31 78q42 38 100 38q76 0 126 -62q48 -58 48 -135z" />
    <glyph glyph-name="quotesinglbase" unicode="&#x201a;" horiz-adv-x="682" 
d="M498 10q0 -118 -89 -215q-59 -64 -171 -106v47q104 61 140 114q26 38 26 91q0 61 -37 61q-12 0 -36 -8t-36 -8q-43 0 -72.5 31t-29.5 74q0 50 31 78q42 38 100 38q76 0 126 -62q48 -58 48 -135z" />
    <glyph glyph-name="quotedblleft" unicode="&#x201c;" horiz-adv-x="909" 
d="M851 992q0 -52 -40 -86.5t-93 -34.5q-77 0 -126 63q-46 58 -46 136q0 114 74 200q69 81 183 114v-38q-84 -48 -116 -83q-49 -53 -49 -129q0 -56 34 -56q13 0 38.5 8t38.5 8q42 0 72 -30t30 -72zM371 989q0 -51 -38.5 -84t-90.5 -33q-76 0 -127 64q-48 59 -48 137
q0 114 76 199q69 78 183 115v-41q-164 -86 -164 -205q0 -62 32 -62q13 0 37.5 7.5t37.5 7.5q43 0 72.5 -31t29.5 -74z" />
    <glyph glyph-name="quotedblright" unicode="&#x201d;" horiz-adv-x="909" 
d="M851 1186q0 -114 -76 -199q-69 -78 -183 -115v41q164 86 164 205q0 62 -32 62q-13 0 -37.5 -7.5t-37.5 -7.5q-43 0 -72.5 31t-29.5 74q0 51 38.5 84t90.5 33q76 0 127 -64q48 -59 48 -137zM372 1189q0 -114 -74 -200q-69 -81 -183 -114v38q84 48 116 83q49 53 49 129
q0 56 -34 56q-13 0 -38.5 -8t-38.5 -8q-42 0 -72 30t-30 72q0 53 41 88q38 33 92 33q77 0 126 -63q46 -58 46 -136z" />
    <glyph glyph-name="quotedblbase" unicode="&#x201e;" horiz-adv-x="909" 
d="M851 -2q0 -114 -76 -199q-69 -78 -183 -115v42q164 85 164 205q0 62 -32 62q-13 0 -37.5 -8t-37.5 -8q-42 0 -72 31.5t-30 73.5q0 51 38 84.5t90 33.5q77 0 128 -64q48 -59 48 -138zM372 -1q0 -114 -74 -200q-70 -82 -183 -115v42q80 45 115 83q49 54 49 128q0 56 -34 56
q-13 0 -38 -8t-38 -8q-43 0 -72.5 30t-29.5 73q0 52 41 87q38 33 91 33q76 0 126 -64q47 -59 47 -137z" />
    <glyph glyph-name="bullet" unicode="&#x2022;" horiz-adv-x="717" 
d="M614 677q0 -109 -71 -180t-180 -71t-180 71t-71 180t71 180t180 71t180 -71t71 -180z" />
    <glyph glyph-name="ellipsis" unicode="&#x2026;" horiz-adv-x="2048" 
d="M1818 83q0 -46 -32.5 -78.5t-78.5 -32.5t-78.5 32.5t-32.5 78.5q0 47 32 79t79 32q46 0 78.5 -32.5t32.5 -78.5zM1135 83q0 -46 -32.5 -78.5t-78.5 -32.5t-78.5 32.5t-32.5 78.5q0 47 32 79t79 32q46 0 78.5 -32.5t32.5 -78.5zM452 83q0 -46 -32.5 -78.5t-78.5 -32.5
t-78.5 32.5t-32.5 78.5q0 47 32 79t79 32t79 -32t32 -79z" />
    <glyph glyph-name="perthousand" unicode="&#x2030;" horiz-adv-x="2048" 
d="M1981 320q0 -239 -143 -330q-71 -45 -145 -45q-167 0 -248 172q-39 83 -39 184q0 246 149 331q72 41 136 41q79 0 150 -49q68 -46 102 -120q38 -82 38 -184zM643 1021q0 -144 -69 -245q-80 -117 -217 -117q-171 0 -252 172q-40 85 -40 191q0 229 146 322q67 43 142 43
q173 0 252 -176q38 -85 38 -190zM1220 1387l-972 -1442h-89l972 1442h89zM1316 312q0 -227 -148 -322q-70 -45 -142 -45q-135 0 -216 118q-72 104 -72 245q0 230 151 322q70 43 140 43q168 0 248 -175q39 -85 39 -186zM1821 329q0 291 -130 291q-125 0 -125 -316
q0 -304 129 -304q73 0 107 114q19 64 19 215zM483 1030q0 304 -134 304q-123 0 -123 -317q0 -308 129 -308q128 0 128 321zM1155 303q0 317 -130 317q-74 0 -108 -110q-19 -62 -19 -210q0 -300 126 -300q131 0 131 303z" />
    <glyph glyph-name="guilsinglleft" unicode="&#x2039;" horiz-adv-x="682" 
d="M563 -8h-57l-387 472l387 470h57l-244 -470z" />
    <glyph glyph-name="guilsinglright" unicode="&#x203a;" horiz-adv-x="682" 
d="M567 462l-394 -470h-58l243 470l-243 472h58z" />
    <glyph glyph-name="newsheqel" unicode="&#x20aa;" horiz-adv-x="1491" 
d="M1389 195q0 -107 -43.5 -151t-149.5 -44h-719v610h137v-473h547q90 0 90 76v739h138v-757zM1014 338h-137v401q0 76 -91 76h-546v-815h-138v952h719q106 0 149.5 -44t43.5 -150v-420z" />
    <glyph glyph-name="trademark" unicode="&#x2122;" horiz-adv-x="2007" 
d="M1973 549h-398v36q44 1 63 6q34 9 47 38q9 20 9 86v492l-307 -658h-32l-308 649v-482q0 -99 36 -120q19 -11 57 -11h36v-36h-306v36q86 0 104 41q9 21 9 90v466q0 108 -37 127q-19 10 -76 10v37h286l273 -572l265 572h279v-37q-41 -1 -60 -6q-30 -8 -42 -37
q-9 -22 -9 -92v-468q0 -80 16 -101q20 -26 95 -30v-36zM801 1155h-34q-20 141 -194 141h-75v-579q0 -76 16 -100q20 -29 90 -32v-36h-374v36q68 6 86 34q14 22 14 97v580h-76q-87 0 -128 -27q-46 -31 -62 -114h-34l21 201h728z" />
    <glyph glyph-name="delete" unicode="&#x2421;" horiz-adv-x="1229" 
d="M1188 59h-293v469h62v-414h231v-55zM835 59h-350v469h339v-56h-277v-143h260v-55h-260v-160h288v-55zM429 296q0 -194 -143 -229q-33 -8 -76 -8h-169v469h162q53 0 83 -7q143 -33 143 -225zM365 297q0 134 -83 166q-23 9 -80 9h-99v-358h100q82 0 115 33q47 47 47 150z
" />
    <glyph glyph-name="glyph143" horiz-adv-x="453" 
 />
    <glyph glyph-name="glyph144" horiz-adv-x="453" 
 />
    <glyph glyph-name="glyph143" horiz-adv-x="453" 
 />
    <glyph glyph-name="glyph144" horiz-adv-x="453" 
 />
    <glyph glyph-name="glyph142" horiz-adv-x="453" 
 />
    <glyph glyph-name="ch270" horiz-adv-x="453" 
 />
  </font>
</defs>
</svg>
